<svg xmlns="http://www.w3.org/2000/svg" enable-background="new 0 0 47.5 47.5" viewBox="0 0 47.5 47.5"><defs><clipPath id="a" clipPathUnits="userSpaceOnUse"><path d="M 0,38 38,38 38,0 0,0 0,38 Z"/></clipPath></defs><g clip-path="url(#a)" transform="matrix(1.25 0 0 -1.25 0 47.5)"><path fill="#3b88c3" d="m 0,0 c 0,-2.209 -1.791,-4 -4,-4 l -28,0 c -2.209,0 -4,1.791 -4,4 l 0,28 c 0,2.209 1.791,4 4,4 l 28,0 c 2.209,0 4,-1.791 4,-4 L 0,0 Z" transform="translate(37 5)"/><path fill="#fff" d="m 0,0 c 2.264,0 6.666,-0.744 6.666,-3.473 0,-1.116 -0.775,-2.077 -1.922,-2.077 -1.271,0 -2.139,1.085 -4.744,1.085 -3.844,0 -5.829,-3.256 -5.829,-7.038 0,-3.689 2.016,-6.852 5.829,-6.852 2.605,0 3.658,1.301 4.93,1.301 1.396,0 2.047,-1.394 2.047,-2.107 0,-2.977 -4.682,-3.659 -6.977,-3.659 -6.294,0 -10.666,4.992 -10.666,11.41 C -10.666,-4.961 -6.325,0 0,0" transform="translate(20.723 30.448)"/></g></svg>